<svg height="5.707875mm" viewBox="0 0 5.7059116 5.7078748" width="5.705912mm" xmlns="http://www.w3.org/2000/svg" xmlns:xlink="http://www.w3.org/1999/xlink"><clipPath id="a"><path d="m0 24h24v-24h-24z"/></clipPath><g style="clip-path:url(#a);fill:none;stroke:#4ba82e;stroke-width:1.2;stroke-linecap:round;stroke-linejoin:round" transform="matrix(.35277777 0 0 -.35277777 -1.380377 7.087266)"><path d="m0 0-2.163-2.221c-.397-.407-.883-.714-1.425-.861-.862-.234-2.146-.244-3.385 1.027-2.139 2.197 0 4.358 0 4.358l3.47 3.56s1.733 2.118 4.677-.903" transform="translate(12.4233 7.7034)"/><path d="m0 0 2.163 2.221c.397.407.883.714 1.425.861.862.234 2.146.243 3.385-1.027 2.139-2.197 0-4.358 0-4.358l-3.47-3.561s-1.733-2.117-4.677.904" transform="translate(11.5767 16.2967)"/></g></svg>